<svg xmlns="http://www.w3.org/2000/svg" viewBox="0 0 96 96" width="96" height="96">
  <rect width="96" height="96" fill="#3E7C54"></rect>
  <g transform="translate(16,16)">
    <path d="M32 18 c-3 -6 -14 -8 -18 0 c-5 10 -1 26 6 32 c4 3.5 8 3.5 12 1 c4 2.5 8 2.5 12 -1 c7 -6 11 -22 6 -32 c-4 -8 -15 -6 -18 0 z" fill="#FFFFFF"></path>
    <path d="M32 17 c0 -5 3 -9 8 -10 c0 5 -3 9 -8 10 z" fill="#FFFFFF"></path>
    <rect x="36" y="26" width="20" height="5" rx="2.5" fill="#3E7C54"></rect>
    <rect x="38" y="35" width="18" height="5" rx="2.5" fill="#3E7C54"></rect>
    <rect x="37" y="44" width="16" height="5" rx="2.5" fill="#3E7C54"></rect>
  </g>
</svg>